<?xml version="1.0" encoding="UTF-8"?>
<svg xmlns="http://www.w3.org/2000/svg" version="1.1" viewBox="0 0 414 414">
  <defs>
    <style>
      .cls-1 {
        fill: #ed5b2d;
      }

      .cls-1, .cls-2 {
        fill-rule: evenodd;
      }

      .cls-2 {
        fill: #ffce6d;
      }
    </style>
  </defs>
  <!-- Generator: Adobe Illustrator 28.7.1, SVG Export Plug-In . SVG Version: 1.2.0 Build 142)  -->
  <g>
    <g id="katman_1">
      <g>
        <path class="cls-2" d="M54.6,363.6h33.9c9.1,0,16.9,7.4,16.9,16.9V45.9c0-9.1-7.4-16.9-16.9-16.9h-33.9c-9.1,0-16.9,7.4-16.9,16.9v334.6c0-9.1,7.4-16.9,16.9-16.9Z"/>
        <path class="cls-2" d="M211.4,365.7h33.9c9.1,0,16.9,6.5,16.9,14.8V87.6c0-8-7.4-14.8-16.9-14.8h-33.9c-9.1,0-16.9,6.5-16.9,14.8v292.9c0-8,7.4-14.8,16.9-14.8h0Z"/>
        <path class="cls-1" d="M132.7,370.9h33.9c9.1,0,16.9,4.9,16.9,11.3v-224.4c0-6.1-7.4-11.3-16.9-11.3h-33.9c-9.1,0-16.9,4.9-16.9,11.3v224.4c0-6.1,7.4-11.3,16.9-11.3h0Z"/>
        <path class="cls-1" d="M323.9,366.3l33.7-3.8c9.1-1,17.6,5.4,18.7,14.9l-37.8-332.4c-1-9.1-9.2-16-18.7-14.9l-33.7,3.8c-9.1,1-16,9.2-14.9,18.7l37.8,332.4c-1-9.1,5.4-17.6,14.9-18.7h0Z"/>
      </g>
    </g>
  </g>
</svg>