<?xml version="1.0" encoding="UTF-8"?>
<svg xmlns="http://www.w3.org/2000/svg" version="1.1" xmlns:xlink="http://www.w3.org/1999/xlink" viewBox="0 0 414 414">
  <defs>
    <style>
      .cls-1 {
        fill: none;
      }

      .cls-2 {
        clip-path: url(#clippath-1);
      }

      .cls-3 {
        fill: #ffce6d;
      }

      .cls-3, .cls-4 {
        fill-rule: evenodd;
      }

      .cls-5 {
        fill: #ed5b2d;
      }

      .cls-4 {
        fill: #f6f6e9;
      }

      .cls-6 {
        clip-path: url(#clippath-2);
      }

      .cls-7 {
        clip-path: url(#clippath);
      }
    </style>
    <clipPath id="clippath">
      <rect class="cls-1" x="3.8" y="81.6" width="406.3" height="258"/>
    </clipPath>
    <clipPath id="clippath-1">
      <rect class="cls-1" x="121.7" y="74.4" width="52.7" height="264.6"/>
    </clipPath>
    <clipPath id="clippath-2">
      <rect class="cls-1" x="239.6" y="74.4" width="52.7" height="264.6"/>
    </clipPath>
  </defs>
  <!-- Generator: Adobe Illustrator 28.7.1, SVG Export Plug-In . SVG Version: 1.2.0 Build 142)  -->
  <g>
    <g id="katman_1">
      <g>
        <g class="cls-7">
          <path class="cls-5" d="M409.4,227v-32.1c-8.1-.3-14.3-1.9-18.5-5.2-4.2-3.2-6.8-7.8-8.4-13.9-1.6-6.2-2.3-16.5-2.3-30.8s-.6-26.2-2.3-33c-1.6-6.8-4.2-12.3-8.4-16.9-4.2-4.2-9.7-7.4-16.5-9.7-6.8-1.9-16.2-3.2-28.2-3.2h-7.1v32.1c12,0,19.4,1.3,22.7,3.6,3.2,2.3,4.5,7.8,4.5,15.9,0,24.9,1.6,42.4,4.5,52.5,2.9,10,10,18.1,20.7,24.6-8.1,4.5-14.6,11-18.8,20.1-4.2,8.7-6.5,27.9-6.5,57.3s-1,11.3-2.9,13.6c-2,2-4.2,3.6-6.5,4.5-2.3,1-8.1,1.3-17.8,1.3v32.1h7.1c18.1,0,30.1-2.3,36.6-6.5,6.5-4.5,11-9.4,13.9-15.2,2.9-5.8,4.5-19.1,4.5-40.5s.6-24.6,2.3-30.8c1.6-6.2,4.2-11,8.4-14.2,4.2-3.2,10.4-5.2,18.5-5.5h.3ZM4.5,227c8.1.3,14.3,2.3,18.5,5.5,4.2,3.2,6.8,7.8,8.4,13.9,1.6,6.2,2.3,16.5,2.3,31.1,0,20.7,1.6,34.3,4.5,40.5s8.1,11.3,14.9,15.5c6.8,4.2,18.8,6.2,36,6.2h7.1v-32.1c-11.3,0-18.5-1.3-22-3.9s-5.2-7.8-5.2-15.6c0-25.6-1.6-43.4-4.9-53.4-3.2-10-10-17.8-20.1-23.6,11-6.5,17.8-14.9,20.7-25.3,2.9-10.4,4.2-27.5,4.2-51.8s1.6-13.6,4.9-15.9,10.7-3.6,22.4-3.6v-32.1h-7.1c-15.6,0-27.2,1.9-35,5.8s-13.3,9.7-15.9,17.5c-2.9,7.8-4.2,20.7-4.2,39.2s-.6,24.3-2.3,30.4c-1.6,6.2-4.2,11-8.4,14.2-4.2,3.2-10.4,5.2-18.5,5.5v32.1l-.3-.3Z"/>
        </g>
        <g class="cls-2">
          <path class="cls-3" d="M136.1,323.8h25.3c6.8,0,12.6,5.5,12.6,12.6V87c0-6.8-5.5-12.6-12.6-12.6h-25.3c-6.8,0-12.6,5.5-12.6,12.6v249.4c0-6.8,5.5-12.6,12.6-12.6Z"/>
        </g>
        <path class="cls-4" d="M195.7,320.6h25.3c6.8,0,12.6,5.5,12.6,12.6v-188.5c0-6.8-5.5-12.6-12.6-12.6h-25.3c-6.8,0-12.6,5.5-12.6,12.6v188.5c0,6.8,5.5-12.6,12.6-12.6Z"/>
        <g class="cls-6">
          <path class="cls-3" d="M253,323.8h25.3c6.8,0,12.6,5.5,12.6,12.6V87c0-6.8-5.5-12.6-12.6-12.6h-25.3c-6.8,0-12.6,5.5-12.6,12.6v249.4c0-6.8,5.5-12.6,12.6-12.6Z"/>
        </g>
      </g>
    </g>
  </g>
</svg>