<svg xmlns="http://www.w3.org/2000/svg" xmlns:xlink="http://www.w3.org/1999/xlink" width="500" zoomAndPan="magnify" viewBox="0 0 375 374.999991" height="500" preserveAspectRatio="xMidYMid meet" version="1.0"><defs><g/><clipPath id="c1138e3365"><path d="M 122 111 L 253 111 L 253 194.1875 L 122 194.1875 Z M 122 111 " clip-rule="nonzero"/></clipPath><clipPath id="f756fd980b"><path d="M 160 108.6875 L 177 108.6875 L 177 194 L 160 194 Z M 160 108.6875 " clip-rule="nonzero"/></clipPath><clipPath id="adab8cf368"><path d="M 198 108.6875 L 215 108.6875 L 215 194 L 198 194 Z M 198 108.6875 " clip-rule="nonzero"/></clipPath></defs><g clip-path="url(#c1138e3365)"><path fill="#ed5b2d" d="M 252.773438 157.878906 L 252.773438 147.539062 C 250.160156 147.4375 248.175781 146.914062 246.820312 145.867188 C 245.460938 144.824219 244.625 143.363281 244.105469 141.378906 C 243.582031 139.394531 243.371094 136.050781 243.371094 131.457031 C 243.371094 126.546875 243.164062 122.996094 242.640625 120.804688 C 242.121094 118.609375 241.285156 116.835938 239.925781 115.371094 C 238.570312 114.015625 236.792969 112.972656 234.601562 112.238281 C 232.40625 111.613281 229.378906 111.195312 225.515625 111.195312 L 223.214844 111.195312 L 223.214844 121.535156 C 227.082031 121.535156 229.480469 121.953125 230.527344 122.683594 C 231.570312 123.414062 231.988281 125.191406 231.988281 127.800781 C 231.988281 135.84375 232.511719 141.484375 233.449219 144.71875 C 234.390625 147.957031 236.6875 150.570312 240.136719 152.65625 C 237.523438 154.121094 235.433594 156.207031 234.078125 159.132812 C 232.71875 161.953125 231.988281 168.113281 231.988281 177.617188 C 231.988281 179.917969 231.675781 181.273438 231.050781 182.003906 C 230.421875 182.632812 229.691406 183.152344 228.960938 183.46875 C 228.230469 183.78125 226.347656 183.882812 223.214844 183.882812 L 223.214844 194.222656 L 225.515625 194.222656 C 231.363281 194.222656 235.226562 193.492188 237.316406 192.136719 C 239.402344 190.671875 240.867188 189.105469 241.804688 187.226562 C 242.746094 185.347656 243.269531 181.066406 243.269531 174.171875 C 243.269531 169.578125 243.476562 166.234375 244 164.25 C 244.523438 162.265625 245.355469 160.699219 246.714844 159.65625 C 248.074219 158.609375 250.058594 157.984375 252.667969 157.878906 Z M 122.222656 157.878906 C 124.835938 157.984375 126.820312 158.609375 128.175781 159.65625 C 129.535156 160.699219 130.371094 162.160156 130.890625 164.144531 C 131.414062 166.128906 131.625 169.472656 131.625 174.171875 C 131.625 180.855469 132.144531 185.242188 133.085938 187.226562 C 134.027344 189.210938 135.695312 190.882812 137.890625 192.238281 C 140.082031 193.597656 143.945312 194.222656 149.484375 194.222656 L 151.78125 194.222656 L 151.78125 183.882812 C 148.125 183.882812 145.828125 183.46875 144.679688 182.632812 C 143.53125 181.796875 143.007812 180.125 143.007812 177.617188 C 143.007812 169.367188 142.484375 163.625 141.441406 160.386719 C 140.394531 157.148438 138.203125 154.640625 134.964844 152.761719 C 138.515625 150.671875 140.710938 147.957031 141.648438 144.617188 C 142.589844 141.273438 143.007812 135.738281 143.007812 127.90625 C 143.007812 125.191406 143.53125 123.519531 144.574219 122.789062 C 145.617188 122.058594 148.019531 121.640625 151.78125 121.640625 L 151.78125 111.300781 L 149.484375 111.300781 C 144.46875 111.300781 140.710938 111.925781 138.203125 113.179688 C 135.695312 114.433594 133.921875 116.3125 133.085938 118.820312 C 132.144531 121.324219 131.726562 125.503906 131.726562 131.457031 C 131.726562 136.050781 131.519531 139.289062 130.996094 141.273438 C 130.476562 143.257812 129.640625 144.824219 128.28125 145.867188 C 126.921875 146.914062 124.9375 147.539062 122.328125 147.644531 L 122.328125 157.984375 Z M 122.222656 157.878906 " fill-opacity="1" fill-rule="nonzero"/></g><g clip-path="url(#f756fd980b)"><path fill="#ffce6d" d="M 164.625 189.105469 L 172.773438 189.105469 C 174.964844 189.105469 176.84375 190.882812 176.84375 193.179688 L 176.84375 112.761719 C 176.84375 110.570312 175.070312 108.6875 172.773438 108.6875 L 164.625 108.6875 C 162.433594 108.6875 160.554688 110.464844 160.554688 112.761719 L 160.554688 193.179688 C 160.554688 190.988281 162.328125 189.105469 164.625 189.105469 Z M 164.625 189.105469 " fill-opacity="1" fill-rule="evenodd"/></g><path fill="#f6f6e9" d="M 183.84375 188.0625 L 191.988281 188.0625 C 194.183594 188.0625 196.0625 189.835938 196.0625 192.136719 L 196.0625 131.351562 C 196.0625 129.160156 194.285156 127.277344 191.988281 127.277344 L 183.84375 127.277344 C 181.648438 127.277344 179.769531 129.054688 179.769531 131.351562 L 179.769531 192.136719 C 179.769531 194.328125 181.546875 188.0625 183.84375 188.0625 Z M 183.84375 188.0625 " fill-opacity="1" fill-rule="evenodd"/><g clip-path="url(#adab8cf368)"><path fill="#ffce6d" d="M 202.328125 189.105469 L 210.472656 189.105469 C 212.667969 189.105469 214.546875 190.882812 214.546875 193.179688 L 214.546875 112.761719 C 214.546875 110.570312 212.773438 108.6875 210.472656 108.6875 L 202.328125 108.6875 C 200.136719 108.6875 198.253906 110.464844 198.253906 112.761719 L 198.253906 193.179688 C 198.253906 190.988281 200.03125 189.105469 202.328125 189.105469 Z M 202.328125 189.105469 " fill-opacity="1" fill-rule="evenodd"/></g><g fill="#ed5b2d" fill-opacity="1"><g transform="translate(102.104124, 231.021363)"><g><path d="M 8.75 -9.71875 L 8.75 0 L 2.671875 0 L 2.671875 -24.96875 L 12.53125 -24.96875 C 15.414062 -24.96875 17.664062 -24.222656 19.28125 -22.734375 C 20.894531 -21.242188 21.703125 -19.441406 21.703125 -17.328125 C 21.703125 -15.878906 21.257812 -14.46875 20.375 -13.09375 C 19.5 -11.71875 18.066406 -10.742188 16.078125 -10.171875 L 22.203125 0 L 15.078125 0 L 9.46875 -9.71875 Z M 8.75 -20.34375 L 8.75 -14.34375 L 12.53125 -14.34375 C 13.445312 -14.34375 14.171875 -14.613281 14.703125 -15.15625 C 15.242188 -15.695312 15.515625 -16.410156 15.515625 -17.296875 C 15.515625 -18.191406 15.238281 -18.921875 14.6875 -19.484375 C 14.144531 -20.054688 13.425781 -20.34375 12.53125 -20.34375 Z M 8.75 -20.34375 "/></g></g></g><g fill="#ed5b2d" fill-opacity="1"><g transform="translate(124.982552, 231.021363)"><g><path d="M 17.78125 -25.046875 L 17.78125 -20.421875 L 8.75 -20.421875 L 8.75 -15.046875 L 16.71875 -15.046875 L 16.71875 -10.421875 L 8.75 -10.421875 L 8.75 -4.625 L 17.78125 -4.625 L 17.78125 0 L 2.671875 0 L 2.671875 -25.046875 Z M 17.78125 -25.046875 "/></g></g></g><g fill="#ed5b2d" fill-opacity="1"><g transform="translate(144.445218, 231.021363)"><g><path d="M 18.53125 0 L 17.15625 -4.203125 L 8.1875 -4.203125 L 6.796875 0 L 0.3125 0 L 9 -25.046875 L 16.40625 -25.046875 L 25.046875 0 Z M 9.71875 -8.828125 L 15.625 -8.828125 L 12.671875 -17.71875 Z M 9.71875 -8.828125 "/></g></g></g><g fill="#ed5b2d" fill-opacity="1"><g transform="translate(168.924783, 231.021363)"><g><path d="M 8.75 -4.625 L 11.453125 -4.625 C 13.773438 -4.625 15.597656 -5.332031 16.921875 -6.75 C 18.253906 -8.175781 18.921875 -10.085938 18.921875 -12.484375 C 18.921875 -14.878906 18.253906 -16.785156 16.921875 -18.203125 C 15.597656 -19.628906 13.773438 -20.34375 11.453125 -20.34375 L 8.75 -20.34375 Z M 11.453125 -24.96875 C 15.441406 -24.96875 18.71875 -23.8125 21.28125 -21.5 C 23.84375 -19.1875 25.125 -16.1875 25.125 -12.5 C 25.125 -8.8125 23.84375 -5.804688 21.28125 -3.484375 C 18.71875 -1.160156 15.441406 0 11.453125 0 L 2.671875 0 L 2.671875 -24.96875 Z M 11.453125 -24.96875 "/></g></g></g><g fill="#ed5b2d" fill-opacity="1"><g transform="translate(194.329448, 231.021363)"><g><path d="M 18.390625 -24.96875 L 24.484375 -24.96875 L 24.484375 0 L 18.390625 0 L 18.390625 -10.359375 L 8.75 -10.359375 L 8.75 0 L 2.671875 0 L 2.671875 -24.96875 L 8.75 -24.96875 L 8.75 -14.984375 L 18.390625 -14.984375 Z M 18.390625 -24.96875 "/></g></g></g><g fill="#ed5b2d" fill-opacity="1"><g transform="translate(220.588047, 231.021363)"><g><path d="M 2.5625 -10.0625 L 2.5625 -24.96875 L 8.640625 -24.96875 L 8.640625 -10.0625 C 8.640625 -8.570312 9.003906 -7.421875 9.734375 -6.609375 C 10.472656 -5.804688 11.554688 -5.40625 12.984375 -5.40625 C 14.410156 -5.40625 15.5 -5.804688 16.25 -6.609375 C 17.007812 -7.421875 17.390625 -8.570312 17.390625 -10.0625 L 17.390625 -24.96875 L 23.484375 -24.96875 L 23.484375 -10.0625 C 23.484375 -7.863281 22.96875 -5.960938 21.9375 -4.359375 C 20.90625 -2.753906 19.597656 -1.582031 18.015625 -0.84375 C 16.441406 -0.113281 14.726562 0.25 12.875 0.25 C 9.976562 0.25 7.535156 -0.648438 5.546875 -2.453125 C 3.554688 -4.253906 2.5625 -6.789062 2.5625 -10.0625 Z M 2.5625 -10.0625 "/></g></g></g><g fill="#ed5b2d" fill-opacity="1"><g transform="translate(245.70806, 231.021363)"><g><path d="M 4.921875 -3.390625 C 2.441406 -5.804688 1.203125 -8.863281 1.203125 -12.5625 C 1.203125 -16.257812 2.441406 -19.3125 4.921875 -21.71875 C 7.398438 -24.125 10.429688 -25.328125 14.015625 -25.328125 C 16.796875 -25.328125 19.265625 -24.59375 21.421875 -23.125 C 23.578125 -21.65625 25.082031 -19.613281 25.9375 -17 L 18.671875 -17 C 17.722656 -18.832031 16.207031 -19.75 14.125 -19.75 C 12.039062 -19.75 10.398438 -19.09375 9.203125 -17.78125 C 8.003906 -16.476562 7.40625 -14.734375 7.40625 -12.546875 C 7.40625 -10.367188 8.003906 -8.628906 9.203125 -7.328125 C 10.398438 -6.023438 12.003906 -5.375 14.015625 -5.375 C 15.460938 -5.375 16.640625 -5.734375 17.546875 -6.453125 C 18.460938 -7.179688 19.078125 -8.148438 19.390625 -9.359375 L 12.34375 -9.359375 L 12.34375 -13.984375 L 25.9375 -13.984375 L 25.9375 -9.359375 C 25.488281 -7.078125 24.242188 -4.953125 22.203125 -2.984375 C 21.222656 -2.035156 20.015625 -1.265625 18.578125 -0.671875 C 17.148438 -0.078125 15.628906 0.21875 14.015625 0.21875 C 10.429688 0.21875 7.398438 -0.984375 4.921875 -3.390625 Z M 4.921875 -3.390625 "/></g></g></g></svg>