<?xml version="1.0" encoding="UTF-8"?>
<svg xmlns="http://www.w3.org/2000/svg" version="1.1" xmlns:xlink="http://www.w3.org/1999/xlink" viewBox="0 0 500 500">
  <defs>
    <style>
      .cls-1 {
        fill: none;
      }

      .cls-2 {
        clip-path: url(#clippath-1);
      }

      .cls-3 {
        fill: #ffce6d;
      }

      .cls-3, .cls-4 {
        fill-rule: evenodd;
      }

      .cls-5 {
        fill: #ed5b2d;
      }

      .cls-4 {
        fill: #f6f6e9;
      }

      .cls-6 {
        clip-path: url(#clippath-2);
      }

      .cls-7 {
        clip-path: url(#clippath);
      }
    </style>
    <clipPath id="clippath">
      <rect class="cls-1" x="58.7" y="79.6" width="378.5" height="240.3"/>
    </clipPath>
    <clipPath id="clippath-1">
      <rect class="cls-1" x="168.5" y="72.9" width="49.1" height="246.5"/>
    </clipPath>
    <clipPath id="clippath-2">
      <rect class="cls-1" x="278.3" y="72.9" width="49.1" height="246.5"/>
    </clipPath>
  </defs>
  <!-- Generator: Adobe Illustrator 28.7.1, SVG Export Plug-In . SVG Version: 1.2.0 Build 142)  -->
  <g>
    <g id="katman_1">
      <g>
        <g class="cls-7">
          <path class="cls-5" d="M436.5,215v-29.9c-7.6-.3-13.3-1.8-17.2-4.8-3.9-3-6.3-7.2-7.8-13-1.5-5.7-2.1-15.4-2.1-28.7s-.6-24.4-2.1-30.8c-1.5-6.3-3.9-11.5-7.8-15.7-3.9-3.9-9.1-6.9-15.4-9.1-6.3-1.8-15.1-3-26.3-3h-6.6v29.9c11.2,0,18.1,1.2,21.1,3.3,3,2.1,4.2,7.2,4.2,14.8,0,23.2,1.5,39.5,4.2,48.9,2.7,9.4,9.4,16.9,19.3,22.9-7.6,4.2-13.6,10.3-17.5,18.7-3.9,8.1-6,25.9-6,53.4s-.9,10.6-2.7,12.7c-1.8,1.8-3.9,3.3-6,4.2-2.1.9-7.6,1.2-16.6,1.2v29.9h6.6c16.9,0,28.1-2.1,34.1-6,6-4.2,10.3-8.8,13-14.2,2.7-5.4,4.2-17.8,4.2-37.7s.6-22.9,2.1-28.7,3.9-10.3,7.8-13.3c3.9-3,9.7-4.8,17.2-5.1h.3ZM59.4,215c7.6.3,13.3,2.1,17.2,5.1,3.9,3,6.3,7.2,7.8,13,1.5,5.7,2.1,15.4,2.1,29,0,19.3,1.5,32,4.2,37.7s7.5,10.6,13.9,14.5c6.3,3.9,17.5,5.7,33.5,5.7h6.6v-29.9c-10.6,0-17.2-1.2-20.5-3.6s-4.8-7.2-4.8-14.5c0-23.8-1.5-40.4-4.5-49.8-3-9.4-9.4-16.6-18.7-22,10.3-6,16.6-13.9,19.3-23.5,2.7-9.7,3.9-25.7,3.9-48.3s1.5-12.7,4.5-14.8,10-3.3,20.8-3.3v-29.9h-6.6c-14.5,0-25.3,1.8-32.6,5.4s-12.4,9.1-14.8,16.3c-2.7,7.2-3.9,19.3-3.9,36.5s-.6,22.6-2.1,28.4c-1.5,5.7-3.9,10.3-7.8,13.3-3.9,3-9.7,4.8-17.2,5.1v29.9l-.3-.3Z"/>
        </g>
        <g class="cls-2">
          <path class="cls-3" d="M181.9,305.3h23.5c6.3,0,11.8,5.1,11.8,11.8V84.7c0-6.3-5.1-11.8-11.8-11.8h-23.5c-6.3,0-11.8,5.1-11.8,11.8v232.3c0-6.3,5.1-11.8,11.8-11.8Z"/>
        </g>
        <path class="cls-4" d="M237.4,302.2h23.5c6.3,0,11.8,5.1,11.8,11.8v-175.6c0-6.3-5.1-11.8-11.8-11.8h-23.5c-6.3,0-11.8,5.1-11.8,11.8v175.6c0,6.3,5.1-11.8,11.8-11.8Z"/>
        <g class="cls-6">
          <path class="cls-3" d="M290.8,305.3h23.5c6.3,0,11.8,5.1,11.8,11.8V84.7c0-6.3-5.1-11.8-11.8-11.8h-23.5c-6.3,0-11.8,5.1-11.8,11.8v232.3c0-6.3,5.1-11.8,11.8-11.8Z"/>
        </g>
        <path class="cls-5" d="M26.5,398.3v28.1H8.9v-72.1h28.5c8.3,0,14.8,2.2,19.5,6.5,4.7,4.3,7,9.5,7,15.6s-1.3,8.3-3.8,12.2c-2.5,4-6.7,6.8-12.4,8.4l17.7,29.4h-20.6l-16.2-28.1h-2.1ZM26.5,367.6v17.3h10.9c2.6,0,4.7-.8,6.3-2.3,1.6-1.6,2.3-3.6,2.3-6.2s-.8-4.7-2.4-6.3c-1.6-1.6-3.6-2.5-6.2-2.5h-10.9Z"/>
        <path class="cls-5" d="M118.7,354v13.4h-26.1v15.5h23v13.4h-23v16.7h26.1v13.4h-43.7v-72.4h43.7Z"/>
        <path class="cls-5" d="M177.1,426.4l-4-12.1h-25.9l-4,12.1h-18.7l25.1-72.4h21.4l25,72.4h-18.8ZM151.6,400.9h17.1l-8.5-25.7-8.5,25.7Z"/>
        <path class="cls-5" d="M219.6,413h7.8c6.7,0,12-2,15.8-6.1,3.8-4.1,5.8-9.6,5.8-16.6s-1.9-12.4-5.8-16.5c-3.8-4.1-9.1-6.2-15.8-6.2h-7.8v45.4ZM227.4,354.2c11.5,0,21,3.3,28.4,10,7.4,6.7,11.1,15.3,11.1,26s-3.7,19.3-11.1,26c-7.4,6.7-16.9,10.1-28.4,10.1h-25.4v-72.1h25.4Z"/>
        <path class="cls-5" d="M320.8,354.2h17.6v72.1h-17.6v-29.9h-27.9v29.9h-17.6v-72.1h17.6v28.8h27.9v-28.8Z"/>
        <path class="cls-5" d="M350.9,397.3v-43.1h17.6v43.1c0,4.3,1,7.6,3.2,10,2.1,2.3,5.3,3.5,9.4,3.5s7.3-1.2,9.4-3.5c2.2-2.3,3.3-5.7,3.3-10v-43.1h17.6v43.1c0,6.4-1.5,11.8-4.5,16.5-3,4.6-6.8,8-11.3,10.2-4.5,2.1-9.5,3.2-14.9,3.2-8.4,0-15.4-2.6-21.2-7.8-5.8-5.2-8.6-12.5-8.6-22Z"/>
        <path class="cls-5" d="M430.3,416.6c-7.2-7-10.7-15.8-10.7-26.5s3.6-19.5,10.7-26.5c7.2-7,15.9-10.4,26.3-10.4s15.2,2.1,21.4,6.4c6.2,4.2,10.6,10.1,13,17.7h-21c-2.7-5.3-7.1-7.9-13.1-7.9s-10.8,1.9-14.2,5.7c-3.5,3.8-5.2,8.8-5.2,15.1s1.7,11.3,5.2,15.1c3.5,3.8,8.1,5.6,13.9,5.6s7.6-1,10.2-3.1c2.6-2.1,4.4-4.9,5.3-8.4h-20.4v-13.4h39.3v13.4c-1.3,6.6-4.9,12.7-10.8,18.4-2.8,2.7-6.3,5-10.5,6.7-4.1,1.7-8.5,2.6-13.2,2.6-10.4,0-19.1-3.5-26.3-10.4Z"/>
      </g>
    </g>
  </g>
</svg>