<?xml version="1.0" encoding="UTF-8"?>
<svg xmlns="http://www.w3.org/2000/svg" version="1.1" viewBox="0 0 500 500">
  <defs>
    <style>
      .cls-1 {
        fill: #fff;
      }

      .cls-2, .cls-3 {
        fill-rule: evenodd;
      }

      .cls-2, .cls-4 {
        fill: #ed5b2d;
      }

      .cls-3 {
        fill: #ffce6d;
      }
    </style>
  </defs>
  <!-- Generator: Adobe Illustrator 28.7.1, SVG Export Plug-In . SVG Version: 1.2.0 Build 142)  -->
  <g>
    <g id="katman_1">
      <rect class="cls-1" x="2" y="1" width="495" height="498"/>
      <g>
        <g>
          <path class="cls-4" d="M75.4,397.4v21.9h-13.7v-56.2h22.2c6.5,0,11.5,1.7,15.2,5.1s5.5,7.4,5.5,12.2-1,6.5-3,9.5c-1.9,3.1-5.2,5.3-9.7,6.5l13.8,22.9h-16l-12.6-21.9h-1.6ZM75.4,373.5v13.5h8.5c2,0,3.7-.6,4.9-1.8,1.2-1.2,1.8-2.8,1.8-4.8s-.6-3.7-1.9-4.9c-1.2-1.2-2.8-1.9-4.8-1.9,0,0-8.5,0-8.5,0Z"/>
          <path class="cls-4" d="M147.3,362.9v10.4h-20.3v12.1h17.9v10.4h-17.9v13h20.3v10.4h-34v-56.4h34Z"/>
          <path class="cls-4" d="M192.8,419.3l-3.1-9.4h-20.2l-3.1,9.4h-14.6l19.6-56.4h16.7l19.5,56.4h-14.7ZM172.9,399.4h13.3l-6.6-20-6.6,20h0Z"/>
          <path class="cls-4" d="M225.9,408.8h6.1c5.2,0,9.3-1.6,12.3-4.8s4.5-7.5,4.5-12.9-1.5-9.7-4.5-12.9c-3-3.2-7.1-4.8-12.3-4.8h-6.1v35.4h0ZM231.9,363c9,0,16.4,2.6,22.1,7.8,5.8,5.2,8.6,11.9,8.6,20.3s-2.9,15-8.6,20.3c-5.8,5.2-13.2,7.9-22.1,7.9h-19.8v-56.2h19.8Z"/>
          <path class="cls-4" d="M304.7,363h13.7v56.2h-13.7v-23.3h-21.7v23.3h-13.7v-56.2h13.7v22.4h21.7v-22.4Z"/>
          <path class="cls-4" d="M328.1,396.6v-33.6h13.7v33.6c0,3.3.8,5.9,2.5,7.8,1.6,1.8,4.1,2.7,7.3,2.7s5.7-.9,7.3-2.7c1.7-1.8,2.6-4.4,2.6-7.8v-33.6h13.7v33.6c0,5-1.2,9.2-3.5,12.9-2.3,3.6-5.3,6.2-8.8,7.9-3.5,1.6-7.4,2.5-11.6,2.5-6.5,0-12-2-16.5-6.1-4.5-4.1-6.7-9.7-6.7-17.1h0Z"/>
          <path class="cls-4" d="M390,411.6c-5.6-5.5-8.3-12.3-8.3-20.6s2.8-15.2,8.3-20.6c5.6-5.5,12.4-8.1,20.5-8.1s11.8,1.6,16.7,5c4.8,3.3,8.3,7.9,10.1,13.8h-16.4c-2.1-4.1-5.5-6.2-10.2-6.2s-8.4,1.5-11.1,4.4c-2.7,3-4.1,6.9-4.1,11.8s1.3,8.8,4.1,11.8c2.7,3,6.3,4.4,10.8,4.4s5.9-.8,7.9-2.4c2-1.6,3.4-3.8,4.1-6.5h-15.9v-10.4h30.6v10.4c-1,5.1-3.8,9.9-8.4,14.3-2.2,2.1-4.9,3.9-8.2,5.2-3.2,1.3-6.6,2-10.3,2-8.1,0-14.9-2.7-20.5-8.1h0Z"/>
        </g>
        <g>
          <path class="cls-2" d="M134.4,332.7h25.6c6.9,0,12.8,5.6,12.8,12.8V92.9c0-6.9-5.6-12.8-12.8-12.8h-25.6c-6.9,0-12.8,5.6-12.8,12.8v252.6c0-6.9,5.6-12.8,12.8-12.8Z"/>
          <path class="cls-2" d="M252.8,334.3h25.6c6.9,0,12.8,4.9,12.8,11.2V124.3c0-6-5.6-11.2-12.8-11.2h-25.6c-6.9,0-12.8,4.9-12.8,11.2v221.2c0-6,5.6-11.2,12.8-11.2h0Z"/>
          <path class="cls-3" d="M193.4,338.2h25.6c6.9,0,12.8,3.7,12.8,8.6v-169.4c0-4.6-5.6-8.6-12.8-8.6h-25.6c-6.9,0-12.8,3.7-12.8,8.6v169.4c0-4.6,5.6-8.6,12.8-8.6h0Z"/>
          <path class="cls-3" d="M337.7,334.7l25.5-2.9c6.8-.8,13.3,4.1,14.1,11.2l-28.6-251c-.8-6.8-7-12.1-14.1-11.2l-25.5,2.9c-6.8.8-12.1,7-11.2,14.1l28.6,251c-.8-6.8,4.1-13.3,11.2-14.1h0Z"/>
        </g>
      </g>
    </g>
  </g>
</svg>