
<svg xmlns="http://www.w3.org/2000/svg" version="1.1" viewBox="0 0 300 69.7">
 <g>
    <g id="katman_1">
      <g>
        <path fill="#ed5b2d" d="M78.6,38.2v12.8h-8V18h13c3.8,0,6.8,1,8.9,3,2.1,2,3.2,4.3,3.2,7.1s-.6,3.8-1.8,5.6c-1.2,1.8-3,3.1-5.7,3.8l8.1,13.4h-9.4l-7.4-12.8h-1ZM78.6,24.1v7.9h5c1.2,0,2.2-.4,2.9-1.1.7-.7,1.1-1.7,1.1-2.8s-.4-2.1-1.1-2.9c-.7-.8-1.7-1.1-2.9-1.1h-5Z"/>
        <path fill="#ed5b2d" d="M120.7,17.9v6.1h-11.9v7.1h10.5v6.1h-10.5v7.6h11.9v6.1h-20V17.9h20Z"/>
        <path fill="#ed5b2d" d="M147.4,51l-1.8-5.5h-11.8l-1.8,5.5h-8.6l11.5-33.1h9.8l11.4,33.1h-8.6ZM135.7,39.3h7.8l-3.9-11.7-3.9,11.7Z"/>
        <path fill="#ed5b2d" d="M166.8,44.9h3.6c3.1,0,5.5-.9,7.2-2.8,1.8-1.9,2.7-4.4,2.7-7.6s-.9-5.7-2.7-7.5c-1.8-1.9-4.2-2.8-7.2-2.8h-3.6v20.8ZM170.3,18c5.3,0,9.6,1.5,13,4.6,3.4,3,5.1,7,5.1,11.9s-1.7,8.8-5.1,11.9c-3.4,3.1-7.7,4.6-13,4.6h-11.6V18h11.6Z"/>
        <path fill="#ed5b2d" d="M213,18h8.1v33h-8.1v-13.7h-12.7v13.7h-8V18h8v13.2h12.7v-13.2Z"/>
        <path fill="#ed5b2d" d="M226.8,37.7v-19.7h8.1v19.7c0,2,.5,3.5,1.4,4.6,1,1.1,2.4,1.6,4.3,1.6s3.3-.5,4.3-1.6c1-1.1,1.5-2.6,1.5-4.6v-19.7h8v19.7c0,2.9-.7,5.4-2.1,7.5-1.4,2.1-3.1,3.7-5.2,4.6-2.1,1-4.3,1.5-6.8,1.5-3.8,0-7.1-1.2-9.7-3.5-2.6-2.4-3.9-5.7-3.9-10.1Z"/>
        <path fill="#ed5b2d" d="M263.1,46.5c-3.3-3.2-4.9-7.2-4.9-12.1s1.6-8.9,4.9-12.1c3.3-3.2,7.3-4.8,12-4.8s6.9,1,9.8,2.9c2.8,1.9,4.8,4.6,6,8.1h-9.6c-1.3-2.4-3.3-3.6-6-3.6s-4.9.9-6.5,2.6c-1.6,1.7-2.4,4-2.4,6.9s.8,5.2,2.4,6.9c1.6,1.7,3.7,2.6,6.4,2.6s3.5-.5,4.7-1.4c1.2-1,2-2.2,2.4-3.8h-9.3v-6.1h17.9v6.1c-.6,3-2.2,5.8-4.9,8.4-1.3,1.3-2.9,2.3-4.8,3-1.9.8-3.9,1.2-6,1.2-4.7,0-8.7-1.6-12-4.7Z"/>
      </g>
      <g>
        <path fill="#ed5b2d" fillRule="evenodd" d="M12,61h5.7c1.5,0,2.9,1.2,2.9,2.9V7.2c0-1.5-1.2-2.9-2.9-2.9h-5.7c-1.5,0-2.9,1.2-2.9,2.9v56.7c0-1.5,1.2-2.9,2.9-2.9Z"/>
        <path fill="#ed5b2d" fillRule="evenodd" d="M38.6,61.3h5.7c1.5,0,2.9,1.1,2.9,2.5V14.2c0-1.4-1.2-2.5-2.9-2.5h-5.7c-1.5,0-2.9,1.1-2.9,2.5v49.6c0-1.4,1.2-2.5,2.9-2.5h0Z"/>
        <path fill="#ffce6d" fillRule="evenodd" d="M25.2,62.2h5.7c1.5,0,2.9.8,2.9,1.9V26.1c0-1-1.2-1.9-2.9-1.9h-5.7c-1.5,0-2.9.8-2.9,1.9v38c0-1,1.2-1.9,2.9-1.9h0Z"/>
        <path fill="#ffce6d" fillRule="evenodd" d="M57.6,61.4l5.7-.7c1.5-.2,3,.9,3.2,2.5l-6.4-56.3c-.2-1.5-1.6-2.7-3.2-2.5l-5.7.7c-1.5.2-2.7,1.6-2.5,3.2l6.4,56.3c-.2-1.5.9-3,2.5-3.2h0Z"/>
      </g>
    </g>
  </g>
</svg>