<svg xmlns="http://www.w3.org/2000/svg" xmlns:xlink="http://www.w3.org/1999/xlink" width="300" zoomAndPan="magnify" viewBox="0 0 224.87999 60" height="80" preserveAspectRatio="xMidYMid meet" version="1.0"><defs><g/><clipPath id="e69e5026b2"><path d="M 2 1 L 94 1 L 94 59.234375 L 2 59.234375 Z M 2 1 " clip-rule="nonzero"/></clipPath><clipPath id="be8457b080"><path d="M 29 0.015625 L 41 0.015625 L 41 59 L 29 59 Z M 29 0.015625 " clip-rule="nonzero"/></clipPath><clipPath id="77ff4cf958"><path d="M 55 0.015625 L 67 0.015625 L 67 59 L 55 59 Z M 55 0.015625 " clip-rule="nonzero"/></clipPath></defs><g clip-path="url(#e69e5026b2)"><path fill="#ed5b2d" d="M 93.214844 34.039062 L 93.214844 26.886719 C 91.410156 26.816406 90.035156 26.453125 89.097656 25.730469 C 88.15625 25.007812 87.582031 23.996094 87.21875 22.625 C 86.859375 21.253906 86.714844 18.941406 86.714844 15.761719 C 86.714844 12.367188 86.570312 9.910156 86.207031 8.394531 C 85.847656 6.878906 85.269531 5.648438 84.328125 4.640625 C 83.390625 3.699219 82.164062 2.976562 80.644531 2.472656 C 79.128906 2.039062 77.035156 1.75 74.363281 1.75 L 72.773438 1.75 L 72.773438 8.902344 C 75.445312 8.902344 77.105469 9.191406 77.828125 9.695312 C 78.550781 10.199219 78.839844 11.429688 78.839844 13.234375 C 78.839844 18.796875 79.199219 22.699219 79.851562 24.9375 C 80.5 27.175781 82.089844 28.980469 84.472656 30.425781 C 82.667969 31.4375 81.222656 32.882812 80.285156 34.90625 C 79.34375 36.855469 78.839844 41.117188 78.839844 47.691406 C 78.839844 49.28125 78.625 50.21875 78.191406 50.722656 C 77.757812 51.15625 77.25 51.519531 76.746094 51.734375 C 76.238281 51.953125 74.9375 52.023438 72.773438 52.023438 L 72.773438 59.175781 L 74.363281 59.175781 C 78.40625 59.175781 81.078125 58.671875 82.523438 57.730469 C 83.96875 56.71875 84.980469 55.636719 85.628906 54.335938 C 86.28125 53.035156 86.640625 50.074219 86.640625 45.308594 C 86.640625 42.128906 86.785156 39.816406 87.148438 38.445312 C 87.507812 37.070312 88.085938 35.988281 89.023438 35.265625 C 89.964844 34.542969 91.335938 34.109375 93.140625 34.039062 Z M 2.921875 34.039062 C 4.726562 34.109375 6.101562 34.542969 7.039062 35.265625 C 7.976562 35.988281 8.554688 37 8.917969 38.371094 C 9.277344 39.746094 9.421875 42.054688 9.421875 45.308594 C 9.421875 49.929688 9.785156 52.964844 10.433594 54.335938 C 11.085938 55.707031 12.238281 56.863281 13.757812 57.804688 C 15.273438 58.742188 17.945312 59.175781 21.773438 59.175781 L 23.363281 59.175781 L 23.363281 52.023438 C 20.835938 52.023438 19.246094 51.734375 18.453125 51.15625 C 17.65625 50.578125 17.296875 49.425781 17.296875 47.691406 C 17.296875 41.984375 16.933594 38.011719 16.210938 35.773438 C 15.492188 33.53125 13.972656 31.800781 11.734375 30.5 C 14.191406 29.054688 15.707031 27.175781 16.355469 24.863281 C 17.007812 22.554688 17.296875 18.726562 17.296875 13.308594 C 17.296875 11.429688 17.65625 10.273438 18.378906 9.769531 C 19.101562 9.261719 20.761719 8.972656 23.363281 8.972656 L 23.363281 1.820312 L 21.773438 1.820312 C 18.308594 1.820312 15.707031 2.253906 13.972656 3.121094 C 12.238281 3.988281 11.011719 5.289062 10.433594 7.023438 C 9.785156 8.757812 9.496094 11.644531 9.496094 15.761719 C 9.496094 18.941406 9.351562 21.179688 8.988281 22.554688 C 8.628906 23.925781 8.050781 25.007812 7.109375 25.730469 C 6.171875 26.453125 4.800781 26.886719 2.992188 26.960938 L 2.992188 34.109375 Z M 2.921875 34.039062 " fill-opacity="1" fill-rule="nonzero"/></g><g clip-path="url(#be8457b080)"><path fill="#ffce6d" d="M 32.25 55.636719 L 37.882812 55.636719 C 39.398438 55.636719 40.699219 56.863281 40.699219 58.453125 L 40.699219 2.832031 C 40.699219 1.316406 39.472656 0.015625 37.882812 0.015625 L 32.25 0.015625 C 30.730469 0.015625 29.433594 1.242188 29.433594 2.832031 L 29.433594 58.453125 C 29.433594 56.9375 30.660156 55.636719 32.25 55.636719 Z M 32.25 55.636719 " fill-opacity="1" fill-rule="evenodd"/></g><path fill="#f6f6e9" d="M 45.539062 54.914062 L 51.175781 54.914062 C 52.691406 54.914062 53.992188 56.140625 53.992188 57.730469 L 53.992188 15.691406 C 53.992188 14.175781 52.761719 12.875 51.175781 12.875 L 45.539062 12.875 C 44.023438 12.875 42.722656 14.101562 42.722656 15.691406 L 42.722656 57.730469 C 42.722656 59.25 43.949219 54.914062 45.539062 54.914062 Z M 45.539062 54.914062 " fill-opacity="1" fill-rule="evenodd"/><g clip-path="url(#77ff4cf958)"><path fill="#ffce6d" d="M 58.324219 55.636719 L 63.960938 55.636719 C 65.476562 55.636719 66.777344 56.863281 66.777344 58.453125 L 66.777344 2.832031 C 66.777344 1.316406 65.546875 0.015625 63.960938 0.015625 L 58.324219 0.015625 C 56.808594 0.015625 55.507812 1.242188 55.507812 2.832031 L 55.507812 58.453125 C 55.507812 56.9375 56.734375 55.636719 58.324219 55.636719 Z M 58.324219 55.636719 " fill-opacity="1" fill-rule="evenodd"/></g><g fill="#ed5b2d" fill-opacity="1"><g transform="translate(98.703439, 36.597522)"><g><path d="M 6.046875 -6.71875 L 6.046875 0 L 1.84375 0 L 1.84375 -17.28125 L 8.65625 -17.28125 C 10.664062 -17.28125 12.226562 -16.757812 13.34375 -15.71875 C 14.457031 -14.6875 15.015625 -13.441406 15.015625 -11.984375 C 15.015625 -10.984375 14.707031 -10.003906 14.09375 -9.046875 C 13.488281 -8.097656 12.5 -7.425781 11.125 -7.03125 L 15.359375 0 L 10.4375 0 L 6.546875 -6.71875 Z M 6.046875 -14.078125 L 6.046875 -9.921875 L 8.65625 -9.921875 C 9.300781 -9.921875 9.804688 -10.109375 10.171875 -10.484375 C 10.546875 -10.859375 10.734375 -11.351562 10.734375 -11.96875 C 10.734375 -12.582031 10.539062 -13.085938 10.15625 -13.484375 C 9.78125 -13.878906 9.28125 -14.078125 8.65625 -14.078125 Z M 6.046875 -14.078125 "/></g></g></g><g fill="#ed5b2d" fill-opacity="1"><g transform="translate(114.525694, 36.597522)"><g><path d="M 12.296875 -17.328125 L 12.296875 -14.125 L 6.046875 -14.125 L 6.046875 -10.40625 L 11.5625 -10.40625 L 11.5625 -7.203125 L 6.046875 -7.203125 L 6.046875 -3.203125 L 12.296875 -3.203125 L 12.296875 0 L 1.84375 0 L 1.84375 -17.328125 Z M 12.296875 -17.328125 "/></g></g></g><g fill="#ed5b2d" fill-opacity="1"><g transform="translate(127.985678, 36.597522)"><g><path d="M 12.828125 0 L 11.859375 -2.90625 L 5.65625 -2.90625 L 4.703125 0 L 0.21875 0 L 6.21875 -17.328125 L 11.34375 -17.328125 L 17.328125 0 Z M 6.71875 -6.109375 L 10.796875 -6.109375 L 8.765625 -12.25 Z M 6.71875 -6.109375 "/></g></g></g><g fill="#ed5b2d" fill-opacity="1"><g transform="translate(144.915246, 36.597522)"><g><path d="M 6.046875 -3.203125 L 7.921875 -3.203125 C 9.523438 -3.203125 10.785156 -3.691406 11.703125 -4.671875 C 12.628906 -5.660156 13.09375 -6.984375 13.09375 -8.640625 C 13.09375 -10.296875 12.628906 -11.613281 11.703125 -12.59375 C 10.785156 -13.582031 9.523438 -14.078125 7.921875 -14.078125 L 6.046875 -14.078125 Z M 7.921875 -17.28125 C 10.679688 -17.28125 12.945312 -16.476562 14.71875 -14.875 C 16.488281 -13.28125 17.375 -11.207031 17.375 -8.65625 C 17.375 -6.101562 16.488281 -4.019531 14.71875 -2.40625 C 12.945312 -0.800781 10.679688 0 7.921875 0 L 1.84375 0 L 1.84375 -17.28125 Z M 7.921875 -17.28125 "/></g></g></g><g fill="#ed5b2d" fill-opacity="1"><g transform="translate(162.484595, 36.597522)"><g><path d="M 12.71875 -17.28125 L 16.9375 -17.28125 L 16.9375 0 L 12.71875 0 L 12.71875 -7.15625 L 6.046875 -7.15625 L 6.046875 0 L 1.84375 0 L 1.84375 -17.28125 L 6.046875 -17.28125 L 6.046875 -10.359375 L 12.71875 -10.359375 Z M 12.71875 -17.28125 "/></g></g></g><g fill="#ed5b2d" fill-opacity="1"><g transform="translate(180.644509, 36.597522)"><g><path d="M 1.765625 -6.96875 L 1.765625 -17.28125 L 5.984375 -17.28125 L 5.984375 -6.96875 C 5.984375 -5.925781 6.234375 -5.125 6.734375 -4.5625 C 7.242188 -4.007812 7.988281 -3.734375 8.96875 -3.734375 C 9.957031 -3.734375 10.710938 -4.007812 11.234375 -4.5625 C 11.765625 -5.125 12.03125 -5.925781 12.03125 -6.96875 L 12.03125 -17.28125 L 16.234375 -17.28125 L 16.234375 -6.96875 C 16.234375 -5.4375 15.875 -4.117188 15.15625 -3.015625 C 14.445312 -1.910156 13.546875 -1.101562 12.453125 -0.59375 C 11.367188 -0.0820312 10.1875 0.171875 8.90625 0.171875 C 6.90625 0.171875 5.210938 -0.445312 3.828125 -1.6875 C 2.453125 -2.9375 1.765625 -4.695312 1.765625 -6.96875 Z M 1.765625 -6.96875 "/></g></g></g><g fill="#ed5b2d" fill-opacity="1"><g transform="translate(198.016998, 36.597522)"><g><path d="M 3.40625 -2.34375 C 1.695312 -4.007812 0.84375 -6.125 0.84375 -8.6875 C 0.84375 -11.25 1.695312 -13.359375 3.40625 -15.015625 C 5.125 -16.679688 7.222656 -17.515625 9.703125 -17.515625 C 11.617188 -17.515625 13.320312 -17.003906 14.8125 -15.984375 C 16.300781 -14.972656 17.34375 -13.566406 17.9375 -11.765625 L 12.921875 -11.765625 C 12.265625 -13.023438 11.210938 -13.65625 9.765625 -13.65625 C 8.328125 -13.65625 7.191406 -13.203125 6.359375 -12.296875 C 5.535156 -11.398438 5.125 -10.195312 5.125 -8.6875 C 5.125 -7.175781 5.535156 -5.96875 6.359375 -5.0625 C 7.191406 -4.164062 8.304688 -3.71875 9.703125 -3.71875 C 10.703125 -3.71875 11.515625 -3.96875 12.140625 -4.46875 C 12.773438 -4.96875 13.195312 -5.632812 13.40625 -6.46875 L 8.546875 -6.46875 L 8.546875 -9.671875 L 17.9375 -9.671875 L 17.9375 -6.46875 C 17.625 -4.894531 16.765625 -3.425781 15.359375 -2.0625 C 14.679688 -1.40625 13.847656 -0.875 12.859375 -0.46875 C 11.867188 -0.0625 10.816406 0.140625 9.703125 0.140625 C 7.222656 0.140625 5.125 -0.6875 3.40625 -2.34375 Z M 3.40625 -2.34375 "/></g></g></g></svg>